<svg preserveAspectRatio="none" width="100%" height="100%" overflow="visible" style="display: block;" viewBox="0 0 22.0701 22.1601" fill="none" xmlns="http://www.w3.org/2000/svg">
<path id="Icon" d="M13.12 5.00009C14.0967 5.19065 14.9944 5.66835 15.698 6.37202C16.4017 7.0757 16.8794 7.97335 17.07 8.95009M13.12 1.00009C15.1492 1.22552 17.0416 2.13426 18.4862 3.5771C19.9309 5.01993 20.842 6.9111 21.07 8.94009M9.29695 12.8632C8.09537 11.6616 7.14659 10.3029 6.45059 8.85332C6.39072 8.72863 6.36079 8.66628 6.33779 8.58739C6.25607 8.30704 6.31477 7.96278 6.48478 7.72535C6.53262 7.65854 6.58978 7.60138 6.70409 7.48707C7.0537 7.13746 7.2285 6.96266 7.34278 6.78688C7.77378 6.12399 7.77378 5.26941 7.34279 4.60652C7.2285 4.43074 7.0537 4.25594 6.70409 3.90633L6.50922 3.71146C5.97778 3.18002 5.71206 2.9143 5.42668 2.76995C4.85912 2.48288 4.18885 2.48289 3.62129 2.76996C3.33591 2.9143 3.07019 3.18002 2.53874 3.71146L2.38111 3.8691C1.85149 4.39872 1.58667 4.66353 1.38443 5.02356C1.16001 5.42307 0.998645 6.04356 1.00001 6.50178C1.00124 6.91473 1.08134 7.19695 1.24155 7.7614C2.10252 10.7948 3.72699 13.6572 6.11497 16.0451C8.50295 18.4331 11.3653 20.0576 14.3987 20.9186C14.9632 21.0788 15.2454 21.1589 15.6583 21.1601C16.1165 21.1615 16.737 21.0001 17.1365 20.7757C17.4966 20.5734 17.7614 20.3086 18.291 19.779L18.4486 19.6214C18.9801 19.0899 19.2458 18.8242 19.3902 18.5388C19.6772 17.9713 19.6772 17.301 19.3902 16.7334C19.2458 16.4481 18.9801 16.1823 18.4486 15.6509L18.2538 15.456C17.9042 15.1064 17.7294 14.9316 17.5536 14.8173C16.8907 14.3863 16.0361 14.3863 15.3732 14.8173C15.1975 14.9316 15.0226 15.1064 14.673 15.456C14.5587 15.5703 14.5016 15.6275 14.4348 15.6753C14.1973 15.8453 13.8531 15.904 13.5727 15.8223C13.4938 15.7993 13.4315 15.7694 13.3068 15.7095C11.8572 15.0135 10.4985 14.0647 9.29695 12.8632Z" stroke="var(--stroke-0, #94979C)" stroke-width="2" stroke-linecap="round" stroke-linejoin="round"/>
</svg>
