<svg preserveAspectRatio="none" width="100%" height="100%" overflow="visible" style="display: block;" viewBox="0 0 24 24" fill="none" xmlns="http://www.w3.org/2000/svg">
<g id="codex 1" clip-path="url(#clip0_0_67)">
<path id="Vector" fill-rule="evenodd" clip-rule="evenodd" d="M8.08571 0.45703C9.04903 0.0611432 10.0976 -0.0817193 11.1317 0.0420297C12.4647 0.19503 13.6527 0.76203 14.6957 1.74203C14.7098 1.75533 14.7269 1.76495 14.7456 1.77001C14.7642 1.77507 14.7839 1.77542 14.8027 1.77103C16.2107 1.42503 17.5647 1.54703 18.8637 2.13703L18.9267 2.16703L19.0807 2.24303C20.4377 2.94603 21.4107 4.01303 21.9987 5.44103C22.2767 6.12003 22.4167 6.82903 22.4197 7.56703C22.4393 8.11656 22.3787 8.66601 22.2397 9.19803C22.2329 9.22515 22.2329 9.25355 22.2399 9.28063C22.2469 9.30772 22.2606 9.33261 22.2797 9.35303C23.0659 10.1501 23.6126 11.1517 23.8577 12.244C24.2427 14.145 23.8477 15.859 22.6747 17.384L22.4927 17.604C21.7159 18.4936 20.6961 19.137 19.5587 19.455C19.5339 19.4622 19.5111 19.4752 19.4923 19.4929C19.4735 19.5107 19.4593 19.5326 19.4507 19.557C19.1957 20.293 18.9397 20.921 18.4637 21.549C17.2647 23.131 15.5017 24.011 13.5157 24C11.9327 23.992 10.5297 23.413 9.30571 22.264C9.28717 22.247 9.2645 22.2351 9.23995 22.2295C9.21541 22.2239 9.18982 22.2247 9.16571 22.232C8.64771 22.399 8.12571 22.423 7.56171 22.417C6.66067 22.4098 5.77315 22.197 4.96671 21.795C4.12261 21.3763 3.38781 20.7665 2.82071 20.014C2.61771 19.745 2.41671 19.492 2.26971 19.193C2.06697 18.7809 1.90132 18.3515 1.77471 17.91C1.50889 16.9067 1.50304 15.8522 1.75771 14.846C1.76595 14.8223 1.76868 14.797 1.76571 14.772C1.76076 14.7472 1.74775 14.7247 1.72871 14.708C1.11229 14.0845 0.641086 13.3326 0.348714 12.506C0.15514 11.9971 0.0427682 11.4609 0.0157136 10.917C-0.0326457 10.2009 0.0307804 9.48163 0.203714 8.78503C0.653714 7.30103 1.51271 6.13703 2.78071 5.29203C3.06271 5.10403 3.33071 4.95803 3.58271 4.85403C3.86871 4.73403 4.15571 4.63403 4.44371 4.55003C4.46431 4.54392 4.48306 4.53276 4.49825 4.51757C4.51345 4.50238 4.5246 4.48363 4.53071 4.46303C4.74911 3.678 5.1247 2.94552 5.63471 2.31003C6.31471 1.46403 7.13171 0.84603 8.08571 0.45703ZM7.28171 8.30703C7.17006 8.1117 6.98538 7.96872 6.76831 7.90955C6.55123 7.85039 6.31955 7.87987 6.12421 7.99153C5.92888 8.10319 5.78591 8.28786 5.72674 8.50494C5.66757 8.72201 5.69706 8.9537 5.80871 9.14903L7.50271 12.114L5.81471 14.962C5.71122 15.155 5.6863 15.3805 5.74515 15.5914C5.804 15.8024 5.94207 15.9824 6.13053 16.0939C6.31898 16.2054 6.54324 16.2398 6.75646 16.1899C6.96968 16.14 7.15536 16.0096 7.27471 15.826L9.21471 12.554C9.29123 12.425 9.33218 12.278 9.33341 12.128C9.33464 11.978 9.2961 11.8303 9.22171 11.7L7.28171 8.30703ZM12.7277 14.547C12.5117 14.5599 12.3087 14.6548 12.1602 14.8123C12.0118 14.9698 11.9292 15.1781 11.9292 15.3945C11.9292 15.611 12.0118 15.8192 12.1602 15.9768C12.3087 16.1343 12.5117 16.2292 12.7277 16.242H17.5757C17.7935 16.2315 17.9989 16.1375 18.1492 15.9796C18.2996 15.8217 18.3835 15.6121 18.3835 15.394C18.3835 15.176 18.2996 14.9663 18.1492 14.8084C17.9989 14.6506 17.7935 14.5566 17.5757 14.546H12.7277V14.547Z" fill="var(--fill-0, #61656C)"/>
</g>
<defs>
<clipPath id="clip0_0_67">
<rect width="24" height="24" fill="white"/>
</clipPath>
</defs>
</svg>
