<svg preserveAspectRatio="none" width="100%" height="100%" overflow="visible" style="display: block;" viewBox="0 0 7.00066 7.00124" fill="none" xmlns="http://www.w3.org/2000/svg">
<path id="Vector" fill-rule="evenodd" clip-rule="evenodd" d="M6.88326 1.1534C6.99014 0.985519 7.02596 0.782055 6.98282 0.587767C6.93969 0.393479 6.82114 0.224284 6.65326 0.117401C6.48538 0.0105191 6.28191 -0.0252947 6.08763 0.0178387C5.89334 0.060972 5.72414 0.179519 5.61726 0.347401L2.68026 4.9624L1.33626 3.2824C1.21201 3.12698 1.0311 3.02729 0.833346 3.00526C0.635589 2.98322 0.437178 3.04065 0.281761 3.1649C0.126344 3.28916 0.0266528 3.47006 0.00461728 3.66782C-0.0174183 3.86557 0.0400075 4.06398 0.164261 4.2194L2.16426 6.7194C2.2388 6.81269 2.33453 6.88683 2.4435 6.93566C2.55246 6.98449 2.67152 7.0066 2.79075 7.00014C2.90998 6.99369 3.02595 6.95886 3.12901 6.89855C3.23207 6.83824 3.31923 6.75419 3.38326 6.6534L6.88326 1.1534V1.1534Z" fill="var(--fill-0, white)"/>
</svg>
