<svg preserveAspectRatio="none" width="100%" height="100%" overflow="visible" style="display: block;" viewBox="0 0 15.7284 15.7269" fill="none" xmlns="http://www.w3.org/2000/svg">
<path id="Vector" d="M9.91068 1.42318C10.1917 1.70456 10.573 1.86283 10.9707 1.86318H12.3647C12.7625 1.86318 13.144 2.02121 13.4253 2.30252C13.7066 2.58382 13.8647 2.96535 13.8647 3.36318V4.75618C13.8647 5.15418 14.0227 5.53618 14.3047 5.81718L15.2887 6.80218C15.4281 6.94148 15.5386 7.10688 15.6141 7.28893C15.6895 7.47098 15.7284 7.66612 15.7284 7.86318C15.7284 8.06024 15.6895 8.25538 15.6141 8.43743C15.5386 8.61948 15.4281 8.78488 15.2887 8.92418L14.3037 9.90918C14.0223 10.1902 13.864 10.5715 13.8637 10.9692V12.3632C13.8637 12.761 13.7056 13.1425 13.4243 13.4238C13.143 13.7051 12.7615 13.8632 12.3637 13.8632H10.9707C10.573 13.8635 10.1917 14.0218 9.91068 14.3032L8.92468 15.2882C8.64343 15.5691 8.26218 15.7269 7.86468 15.7269C7.46718 15.7269 7.08593 15.5691 6.80468 15.2882L5.81868 14.3022C5.53765 14.0208 5.15637 13.8625 4.75868 13.8622H3.36468C2.96703 13.8622 2.58565 13.7043 2.30437 13.4232C2.0231 13.1421 1.86495 12.7608 1.86468 12.3632V10.9702C1.86433 10.5725 1.70606 10.1912 1.42468 9.91018L0.43968 8.92318C0.30029 8.78388 0.189715 8.61848 0.114273 8.43643C0.0388305 8.25438 0 8.05924 0 7.86218C0 7.66512 0.0388305 7.46998 0.114273 7.28793C0.189715 7.10588 0.30029 6.94048 0.43968 6.80118L1.42468 5.81618C1.70582 5.53539 1.86407 5.15452 1.86468 4.75718V3.36318C1.86468 2.96535 2.02272 2.58382 2.30402 2.30252C2.58532 2.02121 2.96686 1.86318 3.36468 1.86318H4.75768C5.15537 1.86283 5.53665 1.70456 5.81768 1.42318L6.80468 0.43918C7.08597 0.157973 7.46743 0 7.86518 0C8.26293 0 8.64439 0.157973 8.92568 0.43918L9.91168 1.42518L9.91068 1.42318Z" fill="var(--fill-0, #2E90FA)"/>
</svg>
