<svg preserveAspectRatio="none" width="100%" height="100%" overflow="visible" style="display: block;" viewBox="0 0 69.8732 32" fill="none" xmlns="http://www.w3.org/2000/svg">
<g id="Access Bank PLC Logo">
<path id="Path 1" d="M69.8091 1.05535C69.8272 1.02536 69.8494 1.02536 69.8732 1.05535L69.8357 1.08534L69.8091 1.05535Z" fill="var(--fill-0, #0124DD)"/>
<path id="Path 8" d="M30.7588 16.9384L13.4508 0V2.5999L28.1021 16.9384L28.1078 16.9439L15.4157 29.3634L15.4003 29.3484L2.71709 16.9384L2.7058 16.9273L8.93173 10.8343H6.23077L0 16.9328L0.00564379 16.9384L15.3959 32L15.4016 31.9945L30.7725 16.9526L30.7588 16.9384Z" fill="var(--fill-0, #FE6309)"/>
<path id="Path 9" d="M13.4452 4.38905V6.98895L23.6169 16.9435L15.4225 24.9633L7.21884 16.938L7.20755 16.9269L13.4335 10.834H10.7325L4.50174 16.9309L4.50739 16.9364L14.0652 26.2901L15.402 27.5983L16.7609 26.27L26.2824 16.9502L13.4452 4.38905Z" fill="var(--fill-0, #FE6309)"/>
<path id="Path 10" d="M21.7956 16.9384L16.7202 11.9674L15.3697 10.6458L14.0414 11.9457L8.93939 16.9328L14.0442 21.9287L15.381 23.2369L16.7371 21.9085L21.8093 16.9526L21.7956 16.9384ZM15.4044 20.6098L11.6529 16.9384L11.6416 16.9273L15.3834 13.2654L19.1349 16.9368L15.4044 20.6098Z" fill="var(--fill-0, #FE6309)"/>
</g>
</svg>
