<svg preserveAspectRatio="none" width="100%" height="100%" overflow="visible" style="display: block;" viewBox="0 0 32 32" fill="none" xmlns="http://www.w3.org/2000/svg">
<g id="Logo">
<path id="Path 34137" d="M29.0488 17.1957C29.0488 24.675 23.2631 30.738 16.1251 30.738C8.98714 30.738 3.20039 24.6792 3.20039 17.1957C3.20039 9.71228 8.9861 3.65557 16.1251 3.65557C23.2642 3.65557 29.0488 9.7206 29.0488 17.1957Z" fill="var(--fill-0, white)"/>
<path id="Path 34138" d="M27.5811 14.6909C28.5054 15.3887 29.5938 15.8367 30.7413 15.9918C31.82 13.9287 32.2118 11.5749 31.8596 9.27339C31.5074 6.97192 30.4296 4.84318 28.7833 3.19747C27.137 1.55177 25.0084 0.475159 22.7076 0.124589C20.4069 -0.22598 18.0544 0.167815 15.993 1.24858C15.9811 1.80261 16.0962 2.35202 16.3295 2.85461C16.5629 3.35721 16.9082 3.79962 17.3391 4.14789L27.5811 14.6909Z" fill="var(--fill-0, #8DBE45)"/>
<path id="Path 34139" d="M4.55472 17.97C3.75583 17.1687 2.54294 15.9928 1.25202 15.9928C0.169032 18.0562 -0.226125 20.412 0.124267 22.7161C0.474658 25.0202 1.55224 27.1519 3.19963 28.7997C4.84701 30.4476 6.97789 31.5253 9.28103 31.8756C11.5842 32.2258 13.9389 31.8301 16.0013 30.7464C16.0949 30.0534 16.0168 29.3481 15.7739 28.6925C15.531 28.0369 15.1308 27.451 14.6085 26.9864L4.55472 17.97Z" fill="var(--fill-0, #8DBE45)"/>
<path id="Path 34140" d="M14.8573 4.3196C15.6233 3.48412 16.0315 2.38163 15.9943 1.24858C13.9326 0.169895 11.5804 -0.221946 9.28056 0.130136C6.98069 0.482217 4.8533 1.55983 3.20835 3.20596C1.5634 4.85208 0.486851 6.98071 0.135571 9.28167C-0.215709 11.5826 0.176635 13.9357 1.25543 15.998C2.93331 16.2852 3.43989 15.5765 4.23878 14.7679L14.8573 4.3196Z" fill="var(--fill-0, #80CBCB)"/>
<path id="Path 34141" d="M28.6744 16.8357L18.1526 28.3872C17.3516 29.1885 16.3343 29.4893 15.9941 30.7443C18.0572 31.8296 20.4131 32.2262 22.7176 31.8761C25.022 31.526 27.1541 30.4475 28.802 28.7984C30.4499 27.1493 31.5273 25.016 31.8766 22.7105C32.2259 20.4049 31.8289 18.0481 30.7434 15.9845C29.5004 16.331 29.4692 16.0334 28.6744 16.8357Z" fill="var(--fill-0, #0F2263)"/>
<path id="Path 34142" d="M28.7919 13.3484L18.6403 3.19251C17.8613 2.41339 16.9687 1.7569 15.993 1.24541C15.018 1.75875 14.1261 2.4166 13.3477 3.19667L3.20243 13.3474C2.42257 14.1252 1.76561 15.0172 1.2541 15.9928C1.7661 16.9672 2.42224 17.8587 3.20035 18.6371L13.3508 28.7899C14.1296 29.57 15.0218 30.2278 15.9971 30.7412C16.9712 30.2281 17.8622 29.571 18.6403 28.792L28.7898 18.6371C29.5692 17.8577 30.2268 16.9652 30.7402 15.9896C30.2273 15.0153 29.5697 14.1244 28.7898 13.3474M24.6653 17.4008C24.6819 17.6007 24.6542 17.8018 24.5842 17.9898C24.5148 18.1788 24.4055 18.3506 24.2638 18.4935C24.1214 18.6352 23.9501 18.7446 23.7616 18.8141C23.5731 18.8836 23.3718 18.9116 23.1715 18.8962C21.8463 18.9025 20.5211 18.8962 19.1948 18.8962H18.865V23.1567C18.8881 23.3658 18.8638 23.5774 18.7939 23.7758C18.7241 23.9741 18.6106 24.1543 18.4617 24.3028C18.3129 24.4513 18.1325 24.5644 17.934 24.6337C17.7355 24.703 17.524 24.7268 17.3151 24.7032H14.6802C14.4694 24.7267 14.256 24.7022 14.0561 24.6314C13.8585 24.5609 13.6789 24.448 13.5297 24.3004C13.3814 24.1518 13.2681 23.9719 13.1981 23.7738C13.1281 23.5758 13.1031 23.3646 13.1251 23.1557V18.8994H12.8182C11.5107 18.8994 10.2031 18.8806 8.89452 18.8994C8.68506 18.9167 8.47434 18.8885 8.27683 18.8166C8.07931 18.7447 7.89968 18.631 7.75028 18.4831C7.60246 18.3336 7.48874 18.1539 7.41691 17.9563C7.34509 17.7587 7.31687 17.5479 7.33419 17.3384C7.36227 16.4351 7.33419 15.5297 7.34043 14.6243C7.31846 14.4174 7.34322 14.2083 7.4129 14.0123C7.48258 13.8163 7.59539 13.6385 7.743 13.492C7.8904 13.3464 8.06794 13.2348 8.26311 13.1653C8.45985 13.0978 8.66924 13.0754 8.8758 13.0997H13.1189C13.1189 12.9759 13.1324 12.8739 13.1324 12.7708V8.89226C13.1023 8.67506 13.123 8.45384 13.1928 8.24599C13.2627 8.03815 13.3798 7.84935 13.5349 7.69445C13.6896 7.53904 13.8783 7.42176 14.0861 7.35186C14.2939 7.28196 14.5151 7.26137 14.7322 7.29172H17.3671C17.567 7.27542 17.7681 7.30203 17.9569 7.36976C18.1462 7.43784 18.3182 7.54693 18.4604 7.68925C18.6027 7.83112 18.7123 8.00229 18.7818 8.19085C18.852 8.3788 18.8797 8.57995 18.863 8.77988V13.0966H23.1372C23.3437 13.0754 23.5524 13.1006 23.7479 13.1704C23.9434 13.2403 24.1209 13.3529 24.2673 13.5001C24.4138 13.6473 24.5255 13.8254 24.5944 14.0213C24.6632 14.2173 24.6875 14.4261 24.6653 14.6326C24.6653 15.5533 24.6653 16.4767 24.6653 17.4008Z" fill="var(--fill-0, #4EA434)"/>
</g>
</svg>
