<svg preserveAspectRatio="none" width="100%" height="100%" overflow="visible" style="display: block;" viewBox="0 0 19.6924 13.1922" fill="none" xmlns="http://www.w3.org/2000/svg">
<g id="Group 592">
<path id="Vector" d="M19.6923 6.05583e-05H18.0195C13.5672 8.23783 13.0853 8.99912 12.6954 10.328H12.523C12.8556 8.82839 12.7295 7.897 12.7295 6.05583e-05H7.35655C5.57821 6.05583e-05 4.15567 1.44364 4.13251 3.17007C4.12793 3.6177 4.15869 4.065 4.22451 4.50788L5.69273 4.26899C5.63868 3.92332 5.612 3.57401 5.61295 3.22422V3.20127C5.61295 2.17879 6.41591 1.47422 7.35655 1.47422H9.56017C10.3863 1.47422 10.5008 1.38311 10.5008 1.38311L10.5812 1.51052C9.75511 2.68079 9.03194 3.70326 6.65654 8.1359C5.61231 10.0674 4.45292 11.7034 2.41015 11.7034C1.76675 11.7034 1.33118 11.5333 0.87244 11.283L0 12.624C0.619587 12.9877 1.38844 13.1922 2.32972 13.1922C4.9805 13.1922 6.62115 11.3059 8.24893 8.29516C8.24893 8.29516 10.8534 3.75042 11.0599 3.05731H11.2433C11.0258 4.04602 11.0599 5.66922 11.0599 6.38654V12.8737H12.7269C16.9495 5.06848 17.7763 3.75042 18.0028 3.05731H18.1868C17.9571 4.04602 18.0143 5.66922 18.0143 12.8737H19.6872L19.6923 6.05583e-05Z" fill="var(--fill-0, white)"/>
</g>
</svg>
